<?xml version="1.0" standalone="no"?>
<!DOCTYPE svg PUBLIC "-//W3C//DTD SVG 20010904//EN"
 "http://www.w3.org/TR/2001/REC-SVG-20010904/DTD/svg10.dtd">
<svg version="1.0" xmlns="http://www.w3.org/2000/svg"
 width="512.000000pt" height="512.000000pt" viewBox="0 0 512.000000 512.000000"
 preserveAspectRatio="xMidYMid meet">
<metadata>
Created by potrace 1.14, written by Peter Selinger 2001-2017
</metadata>
<g transform="translate(0.000000,512.000000) scale(0.100000,-0.100000)"
fill="#000000" stroke="none">
<path d="M3157 4774 c-1 -1 -74 -4 -162 -8 -88 -3 -171 -8 -185 -10 -14 -2
-54 -7 -90 -11 -202 -19 -466 -75 -675 -142 -419 -134 -761 -339 -1050 -628
-404 -404 -630 -910 -671 -1500 -11 -165 -6 -396 12 -525 47 -334 123 -626
243 -923 6 -15 11 -33 11 -39 0 -7 -132 -143 -292 -302 l-293 -290 0 -47 c0
-57 29 -94 80 -103 65 -13 84 2 464 386 107 109 203 198 211 198 9 0 20 -4 26
-9 13 -13 242 -87 359 -116 180 -45 401 -80 575 -92 187 -12 520 -5 615 13 11
2 38 6 60 9 84 10 251 47 363 81 372 113 672 293 960 577 454 447 659 843 727
1407 4 30 8 66 10 80 2 14 9 70 15 125 6 55 15 132 20 170 5 39 12 90 15 115
8 61 12 84 30 176 9 43 18 90 21 104 7 38 44 166 72 250 71 215 171 431 299
644 46 77 80 143 76 146 -10 9 -244 72 -373 100 -52 11 -113 25 -135 30 -56
13 -320 58 -380 65 -27 4 -57 8 -65 10 -8 2 -42 7 -75 11 -33 3 -67 8 -75 9
-14 3 -116 13 -206 20 -105 9 -530 24 -537 19z"/>
</g>
</svg>
