<svg width="1024" height="313" viewBox="0 0 1024 313" fill="none" xmlns="http://www.w3.org/2000/svg">
<path d="M24.6655 759.097C-151.644 626.073 -48.667 333.109 121.012 243.386C184.593 209.837 258.705 196.964 330.087 206.326C394.448 214.909 474.802 236.754 540.723 211.788C590.652 192.673 613.666 145.471 639.8 102.56C712.352 -16.8101 895.293 -39.0458 986.179 74.0829C1019.72 115.824 1033.38 173.948 1016.99 225.051C978.377 343.641 848.875 292.928 775.543 356.515C746.288 381.871 738.487 432.584 721.324 466.523C703.771 501.241 682.317 534.4 659.303 565.998C610.935 632.705 552.035 693.56 484.164 740.762C348.811 835.166 179.522 863.253 36.3675 767.679C32.4668 764.948 28.5661 762.218 24.6655 759.097Z" fill="url(#paint0_radial_101_586)"/>
<defs>
<radialGradient id="paint0_radial_101_586" cx="0" cy="0" r="1" gradientUnits="userSpaceOnUse" gradientTransform="translate(726.435 66.0148) rotate(-122.48) scale(1284.19 2158.72)">
<stop stop-color="#FEBB40"/>
<stop offset="0.5576" stop-color="#EC4C76"/>
<stop offset="0.9726" stop-color="#D60B52"/>
</radialGradient>
</defs>
</svg>
