<svg width="1068" height="380" viewBox="0 0 1068 380" fill="none" xmlns="http://www.w3.org/2000/svg">
<path d="M900.304 25.0706C914.34 30.9209 927.596 37.9412 940.462 46.1316C1026.63 99.9543 1081.21 204.87 1065.22 305.105C1048.85 406.9 941.242 551.597 834.803 572.658C800.104 579.678 764.624 569.928 730.704 559.397C673.781 541.846 620.367 513.375 564.224 496.994C542.39 490.754 518.607 489.194 497.553 497.774C460.904 512.595 451.937 544.577 436.342 576.948C418.797 613.61 389.166 644.422 353.296 663.533C279.608 702.535 184.476 684.204 116.247 642.082C14.8768 579.678 -21.3823 456.822 12.1477 345.277C20.7251 316.415 34.3711 287.944 56.9844 267.663C95.5829 232.561 153.676 226.321 204.361 239.191C239.45 248.162 271.421 265.323 301.832 284.044C326.784 299.644 349.787 321.095 380.588 321.095C442.97 321.485 462.074 241.141 481.958 196.289C508.08 137.006 552.137 85.1336 606.721 50.4218C694.835 -6.13101 804.392 -15.8815 900.304 25.0706Z" fill="url(#paint0_radial_101_583)"/>
<defs>
<radialGradient id="paint0_radial_101_583" cx="0" cy="0" r="1" gradientUnits="userSpaceOnUse" gradientTransform="translate(538.764 -106.07) rotate(79.7207) scale(1206.28 1124.64)">
<stop stop-color="#FEBB40"/>
<stop offset="0.5576" stop-color="#EC4C76"/>
<stop offset="0.9726" stop-color="#D60B52"/>
</radialGradient>
</defs>
</svg>
